# xmcd
#
# Track frame offsets:
#	150
#	17095
#	28855
#	42640
#	59590
#	70390
#	85250
#	96875
#	103640
#	114062
#	131245
#
# Disc length: 1917 seconds
#
# Revision: 0
# Processed by: cddbd v1.5.2PL0 Copyright (c) Steve Scherf et al.
# Submitted via: EasyCDDAExtractor 11.1.0.1
#
DISCID=99077b0b
DTITLE=CB Rollerskating - Still around and rollin'
DYEAR=1900
DGENRE=country
TTITLE0=Sad songs make me cry
TTITLE1=Pigen på side ni
TTITLE2=Chrystal chandeliers
TTITLE3=This letter in my hand
TTITLE4=Am I losing you
TTITLE5=En saga blot
TTITLE6=(I've heard) Lots of people crying
TTITLE7=Gør det du ved
TTITLE8=Blue again
TTITLE9=Please don't say you love me
TTITLE10=Sov Dukke Lise          Instrumental
EXTD=
EXTT0=
EXTT1=
EXTT2=
EXTT3=
EXTT4=
EXTT5=
EXTT6=
EXTT7=
EXTT8=
EXTT9=
EXTT10=
PLAYORDER=
